#define WIFI_4_width 12
#define WIFI_4_height 12
static unsigned char WIFI_4_bits[] = {
   0x00, 0x00, 0x00, 0x00, 0x00, 0x00, 0x80, 0x00, 0x80, 0x00, 0xa0, 0x00,
   0xa0, 0x00, 0xa8, 0x00, 0xa8, 0x00, 0xaa, 0x00, 0xaa, 0x00, 0x00, 0x00 };
