#define WIFI_5_width 12
#define WIFI_5_height 12
static unsigned char WIFI_5_bits[] = {
   0x00, 0x00, 0x00, 0x02, 0x00, 0x02, 0x80, 0x02, 0x80, 0x02, 0xa0, 0x02,
   0xa0, 0x02, 0xa8, 0x02, 0xa8, 0x02, 0xaa, 0x02, 0xaa, 0x02, 0x00, 0x00 };
