#define WIFI_2_width 12
#define WIFI_2_height 12
static unsigned char WIFI_2_bits[] = {
   0x00, 0x00, 0x00, 0x00, 0x00, 0x00, 0x00, 0x00, 0x00, 0x00, 0x00, 0x00,
   0x00, 0x00, 0x08, 0x00, 0x08, 0x00, 0x0a, 0x00, 0x0a, 0x00, 0x00, 0x00 };
