#define WIFI_3_width 12
#define WIFI_3_height 12
static unsigned char WIFI_3_bits[] = {
   0x00, 0x00, 0x00, 0x00, 0x00, 0x00, 0x00, 0x00, 0x00, 0x00, 0x20, 0x00,
   0x20, 0x00, 0x28, 0x00, 0x28, 0x00, 0x2a, 0x00, 0x2a, 0x00, 0x00, 0x00 };
