#define cheak_width 12
#define cheak_height 12
static unsigned char cheak_bits[] = {
   0xfe, 0x07, 0x03, 0x0c, 0x01, 0x08, 0xf1, 0x08, 0xf9, 0x09, 0xf9, 0x09,
   0xf9, 0x09, 0xf9, 0x09, 0xf1, 0x08, 0x01, 0x08, 0x03, 0x0c, 0xfe, 0x07 };
