#define WAVRecorder_width 32
#define WAVRecorder_height 32
static unsigned char WAVRecorder_bits[] = {
   0x00, 0xc0, 0x03, 0x00, 0x00, 0xf0, 0x0f, 0x00, 0x00, 0x38, 0x1c, 0x00,
   0x00, 0x0c, 0x30, 0x00, 0x00, 0x0c, 0x30, 0x00, 0x00, 0x04, 0x20, 0x00,
   0x00, 0x06, 0x60, 0x00, 0x00, 0x06, 0x60, 0x00, 0x00, 0x06, 0x60, 0x00,
   0x00, 0x06, 0x60, 0x00, 0x00, 0x06, 0x60, 0x00, 0x00, 0x06, 0x60, 0x00,
   0x00, 0x06, 0x60, 0x00, 0x00, 0x06, 0x60, 0x00, 0x00, 0x06, 0x60, 0x00,
   0x00, 0x06, 0x60, 0x00, 0x00, 0x06, 0x60, 0x00, 0x00, 0x06, 0x60, 0x00,
   0x00, 0x06, 0x60, 0x00, 0x00, 0x04, 0x20, 0x00, 0x80, 0x0c, 0x30, 0x01,
   0x80, 0x19, 0x98, 0x01, 0x80, 0x79, 0x9e, 0x01, 0x00, 0xe3, 0xc7, 0x00,
   0x00, 0x86, 0x61, 0x00, 0x00, 0x9c, 0x39, 0x00, 0x00, 0xf8, 0x1f, 0x00,
   0x00, 0xc0, 0x03, 0x00, 0x00, 0x80, 0x01, 0x00, 0x00, 0x80, 0x01, 0x00,
   0x00, 0xe0, 0x07, 0x00, 0x00, 0xe0, 0x07, 0x00 };
