#define no_cheak_width 12
#define no_cheak_height 12
static unsigned char no_cheak_bits[] = {
   0xfe, 0x07, 0x03, 0x0c, 0x01, 0x08, 0x01, 0x08, 0x01, 0x08, 0x01, 0x08,
   0x01, 0x08, 0x01, 0x08, 0x01, 0x08, 0x01, 0x08, 0x03, 0x0c, 0xfe, 0x07 };
